<svg width="21" height="23" viewBox="0 0 21 23" fill="none" xmlns="http://www.w3.org/2000/svg">
<path d="M0.740476 8.03882H19.2435V18.5571C19.2435 20.6019 17.5858 22.2595 15.5411 22.2595H4.44285C2.39809 22.2595 0.740476 20.6019 0.740476 18.5571V8.03882Z" stroke="black" stroke-width="1.48095"/>
<path fill-rule="evenodd" clip-rule="evenodd" d="M14.2215 6.49523C14.2215 4.15981 12.3282 2.2666 9.9928 2.2666C7.65737 2.2666 5.76412 4.15981 5.76406 6.49523H5.7373V10.0638C5.7373 10.4727 5.40578 10.8043 4.99682 10.8043C4.58787 10.8043 4.25635 10.4727 4.25635 10.0638V6.49523C4.25635 6.42179 4.26704 6.35086 4.28695 6.28389C4.39818 3.22847 6.91021 0.785645 9.9928 0.785645C13.0752 0.785645 15.5871 3.22819 15.6986 6.28336C15.7186 6.35048 15.7294 6.4216 15.7294 6.49523V10.0638C15.7294 10.4727 15.3979 10.8043 14.9889 10.8043C14.58 10.8043 14.2484 10.4727 14.2484 10.0638V6.49523H14.2215Z" fill="black"/>
</svg>
